<svg width="512" height="512" viewBox="0 0 512 512" fill="none" xmlns="http://www.w3.org/2000/svg">
  <defs>
    <linearGradient id="bg" x1="96" y1="64" x2="416" y2="448" gradientUnits="userSpaceOnUse">
      <stop stop-color="#A78BFA"/>
      <stop offset="1" stop-color="#22D3EE"/>
    </linearGradient>
    <linearGradient id="fur" x1="160" y1="120" x2="352" y2="368" gradientUnits="userSpaceOnUse">
      <stop stop-color="#F8FAFC"/>
      <stop offset="1" stop-color="#CBD5E1"/>
    </linearGradient>
    <linearGradient id="shadow" x1="196" y1="168" x2="338" y2="338" gradientUnits="userSpaceOnUse">
      <stop stop-color="#94A3B8"/>
      <stop offset="1" stop-color="#64748B"/>
    </linearGradient>
  </defs>

  <circle cx="256" cy="256" r="224" fill="url(#bg)"/>
  <circle cx="256" cy="256" r="224" fill="#0F172A" fill-opacity="0.08"/>

  <path d="M171 232L146 136L228 185L171 232Z" fill="#E2E8F0"/>
  <path d="M341 232L366 136L284 185L341 232Z" fill="#E2E8F0"/>
  <path d="M183 222L164 158L219 192L183 222Z" fill="#F472B6" fill-opacity="0.8"/>
  <path d="M329 222L348 158L293 192L329 222Z" fill="#F472B6" fill-opacity="0.8"/>

  <path d="M256 386C346.022 386 400 322.274 400 252C400 181.726 336.274 126 256 126C175.726 126 112 181.726 112 252C112 322.274 165.978 386 256 386Z" fill="url(#fur)"/>
  <path d="M256 153C194 153 144 195 144 248C144 291 176 339 256 339C336 339 368 291 368 248C368 195 318 153 256 153Z" fill="url(#shadow)"/>

  <path d="M256 194L182 251L212 334H300L330 251L256 194Z" fill="#F8FAFC"/>
  <path d="M256 220L212 253L229 316H283L300 253L256 220Z" fill="#0F172A" fill-opacity="0.08"/>

  <ellipse cx="218" cy="249" rx="20" ry="24" fill="#0F172A"/>
  <ellipse cx="294" cy="249" rx="20" ry="24" fill="#0F172A"/>
  <circle cx="223" cy="242" r="6" fill="#F8FAFC"/>
  <circle cx="299" cy="242" r="6" fill="#F8FAFC"/>

  <path d="M256 258L234 286H278L256 258Z" fill="#1E293B"/>
  <path d="M256 286C240 286 226 296 220 310C230 322 243 329 256 329C269 329 282 322 292 310C286 296 272 286 256 286Z" fill="#FFF7ED"/>
  <path d="M235 307C244 314 250 317 256 317C262 317 268 314 277 307" stroke="#1E293B" stroke-width="8" stroke-linecap="round"/>

  <path d="M176 282C161 285 149 291 140 300" stroke="#E2E8F0" stroke-width="10" stroke-linecap="round"/>
  <path d="M336 282C351 285 363 291 372 300" stroke="#E2E8F0" stroke-width="10" stroke-linecap="round"/>
  <path d="M177 307C159 310 145 319 136 331" stroke="#E2E8F0" stroke-width="10" stroke-linecap="round"/>
  <path d="M335 307C353 310 367 319 376 331" stroke="#E2E8F0" stroke-width="10" stroke-linecap="round"/>

  <circle cx="256" cy="256" r="224" stroke="#F8FAFC" stroke-opacity="0.35" stroke-width="12"/>
</svg>
